/* XPM */
static char *_538425426e94c56b558a2df0e1e2562xhaUNn1ci2HffRuV[] = {
/* columns rows colors chars-per-pixel */
"64 64 154 2 ",
"   c None",
".  c #37170D",
"X  c #38170D",
"o  c #37180E",
"O  c #3A190E",
"+  c #371910",
"@  c #3C1C12",
"#  c #3F2116",
"$  c #3F2219",
"%  c #411C0F",
"&  c #431F13",
"*  c #432115",
"=  c #4A2415",
"-  c #4B2816",
";  c #422419",
":  c #48251A",
">  c #46281E",
",  c #49291F",
"<  c #502517",
"1  c #5A2717",
"2  c #522718",
"3  c #552C1D",
"4  c #5A2D1C",
"5  c #54331F",
"6  c #5F301F",
"7  c #652F1D",
"8  c #65301C",
"9  c #462C24",
"0  c #4A2C22",
"q  c #4F3025",
"w  c #523225",
"e  c #5B3122",
"r  c #53372D",
"t  c #54382F",
"y  c #583C33",
"u  c #653422",
"i  c #6A3623",
"p  c #603924",
"a  c #6D3825",
"s  c #6C3A28",
"d  c #713B26",
"f  c #773F29",
"g  c #63402C",
"h  c #704820",
"j  c #785029",
"k  c #634431",
"l  c #694C38",
"z  c #73553B",
"x  c #7A563D",
"c  c #795D46",
"v  c #87472F",
"b  c #8C4A31",
"n  c #924E34",
"m  c #84573D",
"M  c #935136",
"N  c #9D5539",
"B  c #A0563A",
"V  c #A2583B",
"C  c #AA5C3E",
"Z  c #885D42",
"A  c #AC5F40",
"S  c #8F6A40",
"D  c #81644A",
"F  c #946F45",
"G  c #9F734A",
"H  c #AD6343",
"J  c #B06645",
"K  c #B16947",
"L  c #B46D49",
"P  c #AD7446",
"I  c #A0724A",
"U  c #B6724C",
"Y  c #B8744E",
"T  c #A47E5C",
"R  c #B97550",
"E  c #BC7C52",
"W  c #BF814E",
"Q  c #BE8352",
"!  c #B0895D",
"~  c #B38C60",
"^  c #AD906B",
"/  c #B2956E",
"(  c #B59A73",
")  c #B99D76",
"_  c #BFA47A",
"`  c #C0814E",
"'  c #C18257",
"]  c #C48956",
"[  c #C28458",
"{  c #C58C5A",
"}  c #C9915F",
"|  c #C88D60",
" . c #CC9663",
".. c #CD9864",
"X. c #C39D6F",
"o. c #CF9C68",
"O. c #D19E67",
"+. c #D19E6A",
"@. c #D3A16D",
"#. c #C0A57B",
"$. c #C5A97E",
"%. c #D5A673",
"&. c #D6A974",
"*. c #D5AD7B",
"=. c #D8AE7A",
"-. c #DBB27D",
";. c #CCB184",
":. c #DDB480",
">. c #DEBA87",
",. c #D4BA8B",
"<. c #DEBD8B",
"1. c #E0BA85",
"2. c #E0BD8A",
"3. c #DDC392",
"4. c #DEC392",
"5. c #DDC291",
"6. c #DEC492",
"7. c #DBC190",
"8. c #E0C08D",
"9. c #E3C28F",
"0. c #E3C28E",
"q. c #E4C490",
"w. c #E5C693",
"e. c #E2C794",
"r. c #E6C794",
"t. c #E4C491",
"y. c #E5C894",
"u. c #E7C996",
"i. c #E6CA96",
"p. c #E7CA96",
"a. c #E7CC99",
"s. c #E6CC9A",
"d. c #E7CD9A",
"f. c #E7CC9A",
"g. c #E7CD9B",
"h. c #E8CC98",
"j. c #E8CD99",
"k. c #E9CD9A",
"l. c #E9CE9B",
"z. c #E9CE9A",
"x. c #EACF9B",
"c. c #E9CF9C",
"v. c #E9CD9A",
"b. c #E9D19D",
"n. c #EAD09C",
"m. c #EAD09D",
"M. c #EBD09D",
"N. c #EAD19D",
"B. c #EBD19D",
"V. c #EAD19E",
"C. c #EBD19E",
"Z. c #EBD29E",
"A. c #ECD29D",
"S. c #EAD19D",
/* pixels */
"                                                                                                                                ",
"                                                                                                                                ",
"                                                                                                                                ",
"                                                                                                                                ",
"                                                                                                                                ",
"                                                                                                                                ",
"                                                                                                                                ",
"                                                                                                                                ",
"                                                                                                                                ",
"                                                                                                                                ",
"                                                                                                                                ",
"                                                                                                                                ",
"                                                                                                                                ",
"                                                                                                                                ",
"                                                                                                                                ",
"                                                                                                                                ",
"                                                                                  ; O + + O + + @                               ",
"                                                                                  c D D D D D D D                               ",
"                                                                              & @ ( C.A.k.x.A.A.N.& ;                           ",
"                                                                              * O ( C.2.] &.c.A.N.* @                           ",
"                                                                              k p #.C.w...:.c.N.N.k k                           ",
"                                                                          & O 3.C.C.N.A.N.N.c.N.N.A.<.X +                       ",
"                                                                  r y t 0 ^ / &.%.z.N.r.&.<.N.N.N.A.e.I G w >                   ",
"                                                                  & O O O 7.n.{ E y.N.2.Q &.N.V.N.N.s.O.O.: @                   ",
"                                                              , ; ) #.#.#.s.N.2.<.s.c.f.2.w.c.V.A.A.h.....n v 3 #               ",
"                                                              ; O X.-.z.N.A.V.A.V.<.*.2.N.c.c.>.=.A.i.} ..H C = O               ",
"                                                              ; O P ` 0.A.c.V.V.V.@.Q %.N.N.V. .W b.i... .H C = O               ",
"                                > $ * ; * ; ;           9 # * #.;.7.0.z.N.V.V.:.-.o. .o.&.&.&.O.} &.&...} H C = O               ",
"                                @ O O O + O O           ; + O ,.c.C.C.C.N.c.C.&.%.o. ... . . . . ... ... .H C = O               ",
"                            9 $ ) 3.3.3.3.*.Q g ; $ # # _ 4.4.c.C.V.C.C.V.&.+.O.o. . .[ H Q  . . ...} H J C C = O               ",
"                            * X _ N.N.N.N.<.{ p . . . . $.A.N.A.c.C.C.k.k.+..... . . .Q H R }  . .} { C C V N - O               ",
"                        * + ;.d.N.N.A.N.V.N.z.d.s.s.s.s.N.N.A.c.A.A.C.%......... .U A V A A C C C C C C C * O O O               ",
"                        ; + ;.A.A.c.N.c.C.c.V.A.A.C.C.A.V.A.C.V.C.c.C.%...........Y C C C A A C C A C C C * O O %               ",
"                    u u ! ~ r.A.T m x x C.C.C.N.c.C.C.C.C.C.C.C.C.*.%.+. ... .U L H C M 4 1 b C C C V 4 4 & O                   ",
"                    8 8 &.=.z.c.Z 1 < = C.c.A.V.C.V.C.C.C.C.V.C.C.@... . . . .H C C C b + O v C C C N @ + O @                   ",
"                    7 7 &.-.f.A.x & & * A.C.A.C.N.A.c.A.N.N.V.*.&.O... ... ...H C f 3 e     e 3 4 3 e                           ",
"                    8 8 &.-.z.A.z O X * c.N.N.c.c.N.N.N.N.N.N.O. ......... . .H C u O *     : O O O @                           ",
"                    8 8 O.@.f.c.c.f.d.d.A.A.N.F j e ; 3.c.&.o... .....L H H A < &                                               ",
"                    8 8 O.+.z.A.C.V.N.N.c.N.z.F h - + 4.c.&....... ...K A A A & O                                               ",
"                    8 8 K L -.1.c.A.V.V.A.N.N.z - @ + 4.c.&. .....U K A A 7 1                                                   ",
"                    8 8 C C &.-.f.c.C.C.C.C.C.l @ + + 4.N.&... ...J A C C & O                                                   ",
"                    = * C C  .O.&.&.t.C.C.C.V.<.,.,.,.-.-.O...L J A C i 2                                                       ",
"                    @ @ C C } ..+.+.t.C.C.C.V.V.N.z.z.=.&.+. .H C C C 1 %                                                       ",
"                        4 4 H L U U ..&.%.%.%.%.%.&.%.O.| R L A C u 4                                                           ",
"                        O X N A A A '  .........O. . . .' H C C C = O                                                           ",
"                        @ X N A C A H H K J J J J J J J H C C < &                                                               ",
"                        q q s s i i n C C A A A C C C C C b a w ,                                                               ",
"                            & + + + v C C C C C C C C C C d o                                                                   ",
"                                    : = * * * b C C C C                                                                         ",
"                                      9 9 9 9 e 8 e 6 8                                                                         ",
"                                              ; o O o o                                                                         ",
"                                                                                                                                ",
"                                                                                                                                ",
"                                                                                                                                ",
"                                                                                                                                ",
"                                                                                                                                ",
"                                                                                                                                ",
"                                                                                                                                ",
"                                                                                                                                ",
"                                                                                                                                ",
"                                                                                                                                ",
"                                                                                                                                ",
"                                                                                                                                ",
"                                                                                                                                "
};
