/* XPM */
static char *_b27a3d52bf042cdace30e485f76741aC70wED5kZnl2AxJZ[] = {
/* columns rows colors chars-per-pixel */
"64 64 187 2 ",
"   c None",
".  c #020304",
"X  c #060907",
"o  c #070708",
"O  c #060A09",
"+  c #0B0B0A",
"@  c #090907",
"#  c #110E0B",
"$  c #0D120F",
"%  c #13120E",
"&  c #1A130F",
"*  c #0F0F10",
"=  c #0D1410",
"-  c #0E1B14",
";  c #141512",
":  c #1B1611",
">  c #151A15",
",  c #1A1B15",
"<  c #1C1E1A",
"1  c #241B14",
"2  c #281F16",
"3  c #0E2D09",
"4  c #0C2607",
"5  c #103F08",
"6  c #0F2618",
"7  c #122218",
"8  c #1D211A",
"9  c #152B1E",
"0  c #15271B",
"q  c #2C2117",
"w  c #23241C",
"e  c #2D2319",
"r  c #2A2A1F",
"t  c #262A1F",
"y  c #32251A",
"u  c #392C1E",
"i  c #26361B",
"p  c #192E21",
"a  c #1A3424",
"s  c #1D3B29",
"d  c #232521",
"f  c #262A22",
"g  c #2D2D22",
"h  c #3F2F21",
"j  c #302F23",
"k  c #2D3026",
"l  c #2F3328",
"z  c #273B29",
"x  c #333326",
"c  c #343629",
"v  c #383729",
"b  c #353A2E",
"n  c #3B3B2C",
"m  c #3C3224",
"M  c #373C30",
"N  c #393E31",
"B  c #413123",
"V  c #4A3726",
"C  c #4F3C29",
"Z  c #513D2A",
"A  c #124708",
"S  c #154F0A",
"D  c #145307",
"F  c #194616",
"G  c #2F551A",
"H  c #345D1D",
"J  c #1C630F",
"K  c #207410",
"L  c #1C5520",
"P  c #20442D",
"I  c #3F402F",
"U  c #244732",
"Y  c #264C34",
"T  c #2B4D36",
"R  c #3D4234",
"E  c #3E543A",
"W  c #41402F",
"Q  c #49412F",
"!  c #5B452F",
"~  c #52402D",
"^  c #444533",
"/  c #484733",
"(  c #464835",
")  c #4A4A36",
"_  c #414638",
"`  c #444B3A",
"'  c #4D4E39",
"]  c #5D4530",
"[  c #564530",
"{  c #4A513F",
"}  c #41583D",
"|  c #55543D",
" . c #58573F",
".. c #56583F",
"X. c #59593F",
"o. c #6B4F36",
"O. c #624931",
"+. c #6C5137",
"@. c #6C5339",
"#. c #6A583E",
"$. c #70573C",
"%. c #71593E",
"&. c #4D5441",
"*. c #445940",
"=. c #505743",
"-. c #545A45",
";. c #5D5C42",
":. c #575F49",
">. c #645C42",
",. c #6F5A40",
"<. c #725B40",
"1. c #5D6245",
"2. c #5C644D",
"3. c #57604A",
"4. c #5F6750",
"5. c #636347",
"6. c #666549",
"7. c #68674B",
"8. c #66694C",
"9. c #69694B",
"0. c #6F6447",
"q. c #776548",
"w. c #7A6C4E",
"e. c #766547",
"r. c #636C53",
"t. c #6D6E51",
"y. c #726F52",
"u. c #667055",
"i. c #6E7052",
"p. c #6B7559",
"a. c #6F7A5E",
"s. c #727454",
"d. c #757857",
"f. c #747658",
"g. c #747A5B",
"h. c #797E5C",
"j. c #787556",
"k. c #727C60",
"l. c #807758",
"z. c #827B5A",
"x. c #1D8406",
"c. c #21840E",
"v. c #238410",
"b. c #7B805F",
"n. c #768163",
"m. c #7D8462",
"M. c #7D8969",
"N. c #7C8868",
"B. c #86805F",
"V. c #828563",
"C. c #888664",
"Z. c #828966",
"A. c #8A8A66",
"S. c #858D69",
"D. c #828E6D",
"F. c #838D6C",
"G. c #8C8D69",
"H. c #85916D",
"J. c #84916E",
"K. c #8B936E",
"L. c #879371",
"P. c #8A9672",
"I. c #8A9672",
"U. c #8E9973",
"Y. c #8F9A74",
"T. c #8D9975",
"R. c #8F9C78",
"E. c #929B75",
"W. c #929F79",
"Q. c #929F79",
"!. c #909772",
"~. c #93A07B",
"^. c #97A47D",
"/. c #95A37C",
"(. c #99A67E",
"). c #99A780",
"_. c #9AA980",
"`. c #9DAB83",
"'. c #9CAB82",
"]. c #9EAB83",
"[. c #9DAC82",
"{. c #9DAC83",
"}. c #9CAC83",
"|. c #9DAB84",
" X c #9DAC84",
".X c #9DAC83",
"XX c #A1B086",
/* pixels */
"      o . . .                                                                                                                   ",
"  o . N.P.T.P., ;                                                                                                               ",
"* r.N._.'.'.'.D.4.O                                                                                                             ",
"o k..X.X'.{.{.{.k..                                               ; = * ; o o o o o o +               ; + o o *             d * ",
"< D..X|.|.'.|.U.p.1 d                                             f l l k k k k w , , w             p k k k g f             < . ",
"R .X'.|.'.|..Xs.8.;..         < . . . . . .                     . 2.{..X|.|.|.|.m.9.9.^ .         + + }.|.|.`.r..           < . ",
"P..X|.'.{.{.'.s.9.6.=.< <   * _ F.J.F.J.J.J., ,             ; < D.W..X]..X.X|.R.t.9.9.5.X.>     + -.M. X|.`.`.Q.f.f d     * R k.",
"|.|.|.'.'.).E.s.9.8.8.g d   l 4.'.'.{.{.'.{.b t             l R {.{..X.X.X.X~.g.9.9.9.9.9.j t < c k. X}.|.|.`.W.V.n f   < d :. X",
"'.|.'.|.}.U.9.9.9.8.9.9.v . W.|.].].'..X{.{.g.^ . X . . . . g.{.{.{.{.{.{.{.V.9.9.9.9.9.9.7.k . (.{.{.'.{.{.'.S.9.6.n . . ..m.{.",
"|.'.|.'.}.U.9.9.9.9.7.7.v . ~.'.'.'..X].{.{.h.5.X.$ O Y 7 . a.{.{.{..X'.{.{.m.9.9.9.9.9.9.9.j . _.{.'.'.'.{.{.S.9.8.n . U . ` {.",
"'.|.{.'.{.U.9.9.9.9.9.7.v . ~.'.'.|.'.'.K.m.i.9.7.% . - O . f R .X.X{.{.{.{.b.9.9.9.9.9.9.9.g . _.{.{.{.'.{.m.f.9.9.^ . $ . > b ",
"{.{.{.{.{.U.9.9.9.8.8.6.v . ~.{.|.'.|.|.V.9.9.6.5.% . . . . . ; }..X'.'.{.{.m.9.9.9.9.9.9.6.k O _.{._.}.{.{.9.7.9.6.^ . . . . . ",
"; Z.'.'.{.E.9.9.9.9.9.: c |.'.'.'.'.'.s.9.7.9.) . N.~.~.~.~.(.J.o 2.'.'.'.'.V.9.9.9.9.9.9.% ( }.'.{._.{.I.9.7.7.9., f /.~.~.~.^.",
"% s.m.m.m.g.9.9.9.;.f _ r.m.m.m.m.V.m.9.9.7.b n { E.{.{.'.{.{.I.. _ S.(.{.{.E.H.H.9.9.X.g ( u.m.m.V.m.m.g.9.7.| g ` r..X{.{.{.{.",
"% 7.9.9.9.9.9.9.9.X.. a.W.9.9.9.9.9.7.9.6.6.< _ .X}.'.{.{.{.'.I.. x 9.H.~.(.^.(.(.9.9.) . N.J.9.9.9.9.9.9.9.>.^ ; k.'.'.'.|.{.'.",
"% 5.9.9.9.9.9.9.9.X.. ' 7.9.7.9.7.9.9.7.r . _..X|.'.'.'.'.'.h.;.. x 9.9.9.9.9.9.9.9.9./ . | 9.9.9.9.9.9.9.8.O N |.'.|.'.|.'.'.|.",
". . 5.9.9.9.9.9.9.=.. @ w 9.9.9.9.9.9.> X . ^.'.{.'.'.{.{.{.h.7.X.w % 9.9.9.9.9.9.9.9./ X o x 9.9.9.9.9.' X . b {.{.'.'.|.'.|.|.",
"P O ; ;.9.9.9.9.| , . . . # + > w w w X . . (.'.'.'.'.'.~.S.f.9.9.w o , ;.9.9.9.9.6.| ; . . o $ % > 1 w ; . . b {.{.'.'.'.|.W.I.",
"Y $ . ..6.6.5.5.) . ; > , , , % . . . O X . (.].{.'._.{.m.9.9.9.9.w . . | 6.9.6.6.6.^ X ; : 8 8 8 + . . X = . b {.{.'.'.'.'.Z.7.",
"Y + . . . . . . . . W.{.{.{. X2.. . p T 9 . ).{.{.{._.f.9.9.9.9.9.w . . . X . . . . . w {.}.}.}.}.R . . P Y O b {.{.'.'.'.g.y.7.",
"6 o . R ` ` ` = ; { ).|.{.{.K.8.n v > a p . N N N R.(.9.9.9.9.9.9.w . . N ` ` ` ( o + _ {.{.{.}.P.-.n n > P O > R L.{.(.I.7.9.9.",
". . . T.|.|.|.f < W.'.'.}.}.i.9.9.5.> > 9 . . . . a.J.9.9.9.;.X.X.1 . . D.{.{.{.{.$ , X./.{.{.(.9.9.6.6.+ a O . . g./.i.7.9.;.| ",
"c W.~..X.X.X|.s.^ . T.|.^.9.9.9.9.. . . . . ~.r.. . ; 9.9.9.: . . { ~.~.{.{.{.{.XX9.Q . J.{.U.6.9.9.X.. . . . R W.d , 9.9.9.x . ",
"N.|..X.X.X.X.Xs.^ . w p t : : : > . . w p.p.|.Y.p.p.M , , : , : . =.{.{.{.{.{.{.{.9.^ . 8 t w : , , ; . . w u.M.{.a._ , : , o . ",
"|.|._..X{.{.{.s.) o . . o o o X . . . c '.{..X].{.{.' o X . G H . =.{.{.{.{.{.{.'.E.2.X . X X @ o . . . . b .X.X}.{.2.X . . . . ",
"|.|..X.X{.K.9.9.9.X.. / 9.9.9.W . . 4.).{.|..X|.{.{./.9.g . J K . =.{.{.{.{.].(.'.'.A.^ . ' 9.9.9.f . . p.^..X{.{.{.(.n.. . A x.",
"_.|.|.|./.d.9.7.;.x . ; x 9.9.n . { M.{.|.'.'.{.|./.Y.9./ x F S 3 z t.~.{.{.XX{.'.E.s.f . : W 9.9.r X &.I.{..X.X{.'.'.n.x x i A ",
"}.|.}.^.Z.6.9.9./ . . . , 5.5.b . ~.{.{.'.'.|.{.|.g.9.9.9.9.w O c.3 , b.'.{.{.{.(.7.^ . . . x 5.6.r . {.{.{._.}.}.}.U.9.9.6.c . ",
"i.d.b.9.9.9.7.9./ . . . . . . . . /._..X.X.X{.U.i.9.9.9.9.9.b i c.L 9 . X.9.^.Z.t.9.) . . . . . X . @ '.'.{.'.E.s.t.9.9.9.9.( t ",
"n n n 5.9.9.9.^ t . _ ` ` ` b 8 . M g.(.^.^.^.m.9.9.9.9.9.9.9.5.S F 6 . j v ) >.8.n t . ` &.&.&.{ , . N Z././.Z.9.9.9.9.9.9.9.6.",
". . . ..9.9.9.> , J.'..X.X.Xf.V . . W 7.9.9.9.6.9.9.9.9.9.9.7.>.. . . . . . . ^ 9.+ f I.'.{.}.}.}.R . . ' 9.9.9.9.9.9.9.7.9.7.9.",
"p.p.u.t , , 8 -.k.{..X{..X.Xs.;.( . % w ) 9.9.9.9.9.9.9.8.9.g t p.p.p.p.p.p.X > 1 3.n.{.{.{.}.}.|.4.V . : w 9.9.9.9.9.9.9.7.^ , ",
".X.X.Xw + . . k.]..X].'..X.Xs.6.6.$ . . n 9.9.9.9.9.9.9.8.8.w 8 _.'..X.X.X.X$ o . D.|.|.|.|.'..X_.s.;.. . o 9.9.9.9.9.9.8.9.v o ",
".X.X.X'.p.. . k.]..X|.|..X|.t.5.| 9., . . . . . . . . . . . d.{.{.|..X.X.X.X.X&.. D.|.|..X}.{.|.t.;.| 9.$ . . . . o o . . . x 9.",
".X.X'.|.s.. . k..X].].'.W.q.+.B . T = . . . M f . . . . ; < b.{.'.|.{..X{.'..X=.. D.].]..X.X.X|.9.r . T O . . , N ; . . . , n 9.",
".X.X'.|.s.h . k. X X'.'.!.+.+.h . P = 8 r.r._.Y.p.p.=.. n 9.f.K..X|.{._.'.|.{.=.. D.XX]..X|..XG.#.e X Y O l u.Z..Xn.u.l . 9.9.9.",
"E.I.!.E.z.C . a.|.|.|.|.K.+.+.B . > f :.{.{.'.|.|..XP.b g g =.d.|.].].!.E.E.E.' . F./.G.G.(.`.%.+.e . 7 f r..X.X.X.X.Xr.c x ) 9.",
"+.+.o.C.y.u . a.`.|.|.G.e.+.! y . . r.{.|..X|.'.'..X}..X` . ) s.C.C.C.$.o.o.O.2 . k.z.+.+.B.w.+.] 1 . . m.'.'.|..X.X.X.XR.. x 9.",
"o.o.+.# . . . Z z.}.z.o.+.+.# . . N.~.{.'.'.{..X_.|.|._.R.L.g : +.o.+.+.o.O.. . . ] +.+.+.+.+.+.+ . + J.).|.|.'..X.X_..X_.J._ o ",
"1 + @ . . . . Z #.<.+.+.+.+.+ $ , ^.{.{.|..X}..X.X}..X.X^.R.c , ! y @ @ + o . . . ] +.B + + + o . + < .X|._.'.|..X.X|.|.}..X-., ",
"# . . . . . . C +.+.+.+.C q X ` {.{.'.'.'.}.}._.}.}.}.}.n.9.7.>.. + @ . . . . . . 1 # . . . . . . 3.'.{.{.{.{.{..X.X'.{.'..XF.9.",
"% V._.'.'.s.6.: + +.+.+.h . . I b.b.b.b.E.{.U.n.b.b.b.9.9.9.7.;.. 2.|.].'.'.9.6.7.+ . . ;.6.E Y . ) b.h.S._.}.E.k.m.b.d.9.9.9.7.",
"-.E.'.{.{.d.9.W r 2 2 2 , 7 7 8 w 6.9.9.s.d.s.9.9.9.7.7.9.9.x t &.Z.|.|.'.'.9.9.9.+ % n 6.7.*.T 0 8 r 7.i.d.d.s.9.7.9.9.9.7.^ w ",
"'.'.'.'.{.g.9.9.^ . . . - U U 9 . ;.;.;.5.9.9.6.>.;.X.;.;.1., , .X].'.'.'.{.E.g.9.% < ;.;.;.E U U - . ;.;.5.9.9.9.5.;.;.;.;.j . ",
"{.{.{.].K.9.7.9.( . . . . . . . . . . . n 9.9./ . . . . . . g.{..X|..X.X.X.X{.m.9.9.( . . . . . . . . . . + 9.9.9., . . . . _ '.",
".X{.{.W.b.9.9.9...x x + > =.=.=.&.=.w . ; w w , X . . . , x n.~..X.X.X.X.X].{.V.9.9.;.c c o f =.=.=.=.&.+ . w w w o . X . v X.(.",
"{.{..Xs.9.9.9.7.9.9...: b {..X.X.X.Xr.> X . . X X . . @ x ' 5.h..X.X.X.X.X]..XZ.9.9.9.5.5.; { .X]..X.X.Xw = . . . . . o . / | s.",
"Z.{..Xf.s.9.s.9.9.;.. p.{.{..X.X.X.X{.{.n . . b {.{.].].` . ) 9.Z..X.X.X.X.X.XS.s.9.) . . m..X.X].]..X.X{.{.+ . . d..X].~.. g 9.",
"( I.'.'.{.{.{.d.9.;.. p.'..X.X.X{.{.{.2.8 . -.a.{.{.{.{.b.:.b x 9.I..X|..X.X.X.X|.t.) . . N.'.|..X.X.X.XL.=.O 8 3.P..X.X).2.R j ",
"% m.'.{.{.{.{.s.9.;.. a..X.X|.).~.^.^., . . ).{.{.{.'.'.{.{.f O 7.Z.(.(..X.X.X_.).9.( . . N..X|..X_.(.(.f.. . N .X.X{.{..X.X' . ",
"% m.{.{.{.{.{.d.;.n . p.'.E.U.h.9.7.9.% . . (.{..X'.'.'.{.{.9.) : ^ 9.9..X.X{.m.9.9./ . . N./.T.E.f.9.7.) . . N .X.X|.|.|.|.P.N.",
"% V.'.{.{.{.{.d.) . . r.K.9.9.6.6.6.6.; . . (.{..X'.'.'.}.{.g.1.. v 9.9._..X'.V.9.9./ . . k.Z.9.7.7.5.6./ . . n ~._.|.'.|.|.}.|.",
"% 5.s.(.{.{.{.s.) . . . < 9.9.V . . . . . . 9.S..X.X{.{.S.y.9.5.. v 9.9.9.E.{.Z.9.9./ . . . g 6.6.g . . . . . r 9.I.'.'.|.|.}.}.",
". ^ 9.b.b.b.m.9.) . . . + f f > . . o ; o . 6.V..X.X{.{.b.9.x t . > g 9.7.d.h.s.9.9.( . . . ; f r ; . . ; ; . r 9.s.V.{._.Z.m.k.",
". x 9.6.9.8.9.9.' . . . . . . . . . v 9.r X 6.9.s.~..X].b.9.: . . . + 9.7.7.9.9.9.9./ . . . . . . . . . ) 9.o g 9.9.s.'.(.9.9.7.",
". % w w V 8.9.c w _ L.T.P.T.T.T.K.X n 9.r . 6.9.9.9.-.k r w X . x.4 X w w f 9.9.8.g g =.T.R.R.R.P.P.t.. ) 9.+ g 9.9.9.h.g.7.^ w ",
"o o X . t 3.| , 8 .X.X.X X X.X|.^.X i ' w . ) ' ^ Q r . . . . . D 4 . o . + 1.-.| > b '.{.{..X.X.X(.f.. c ' o 8 ' 5.9.7.7.' r . ",
"]..X|.> 7 P . k..X.X.X.X X Xs.9.9.9.: . . . . . . . . . - . . . . 2.XXXXc O Y - . D.'.'.{.{..X.Xb.9.7.9.+ . . . X ' 9.7.5.. . . ",
"].XX.Xn.&.O . a..X.X.X.X{..X0./ , E - w p.p.p.{ . a z / u.a.a.p.p.I.{.{.N.r.$ O . M.{.{..X.X.X.X%.v , } + b p.a.p.r % % ; . c p.",
".X{..X{.r.+ . g..X.X.X.X{.E.@.h . U = b '.'.(.N., a z #.K.{.{.{.{.{.{.{.~.w.% o . F.{.{.{..X.Xz.+.q . Y O =..X.X{.b $ . . , -.{.",
"{..X.XG.$.Z . g.].{.{.'.(.e.o.u . U = b XX}.(.{.{., % +.G.{.{.{..X.X.X.X!.+.+.u . F.(.{.{.{.{.$.+.e X Y O &..X}.{.{.2.. . j.(.].",
"_.z.<.%.+.Z . Z %.%.%.$.%.+.+.B . X 4./.(.}.}.XX}.> % +.G.!.G._.^.^.}._.%.+.+.u . N.C.%.%.%.%.o.+.e . X p./..X|.'.{.(.k . o./.].",
">.[ 1 1 1 & . & 1 1 1 1 e V V q . R H.}.}.}.C.9.2.# & +.<.#.+.l.%.9.t.u.q 2 2 & . w w 1 1 1 u C C 1 X ( Y.|.'.E.B.r.3.w o +.9.8.",
". . . . . . . . . . . . . . . . . /.{.}.}.G.@.q X . % +.+.@.+.+.+.2 . . . . . . . . . . . . . . . . o |..X{.'.C.+.& . . . +.# . "
};
