/* XPM */
static char *_0a86dbf9bff4007d5e418a770f6b2c5sC6Y8X3N46OaaiQd[] = {
/* columns rows colors chars-per-pixel */
"64 64 164 2 ",
"   c None",
".  c #020202",
"X  c #080807",
"o  c #070708",
"O  c #070808",
"+  c #0B0C0C",
"@  c #100F0F",
"#  c #11100F",
"$  c #011018",
"%  c #131313",
"&  c #181716",
"*  c #181817",
"=  c #171718",
"-  c #1B1B1B",
";  c #201D1D",
":  c #2F1A1A",
">  c #23201F",
",  c #0F1F24",
"<  c #201F20",
"1  c #022734",
"2  c #242323",
"3  c #282626",
"4  c #2A2827",
"5  c #272728",
"6  c #2C2B2B",
"7  c #33302E",
"8  c #3C322C",
"9  c #343434",
"0  c #393736",
"q  c #393837",
"w  c #3D3C3C",
"e  c #33353E",
"r  c #493D37",
"t  c #413B39",
"y  c #7D3A36",
"u  c #0C384B",
"i  c #03495E",
"p  c #3F4040",
"a  c #054461",
"s  c #434242",
"d  c #494240",
"f  c #4E4846",
"g  c #4B4A4A",
"h  c #544E4D",
"j  c #5C4C43",
"k  c #50504F",
"l  c #59514C",
"z  c #545352",
"x  c #5C5553",
"c  c #5C5856",
"v  c #5C5C5B",
"b  c #605048",
"n  c #6D5B50",
"m  c #645E5C",
"M  c #63615F",
"N  c #6C635F",
"B  c #756359",
"V  c #575F63",
"C  c #57646A",
"Z  c #646362",
"A  c #6B6664",
"S  c #6C6967",
"D  c #6C6A68",
"F  c #736965",
"G  c #716C6A",
"H  c #796E6B",
"J  c #757474",
"K  c #7B7674",
"L  c #7A7877",
"P  c #7E7C7B",
"I  c #8B3E3B",
"U  c #A63E3A",
"Y  c #B2413C",
"T  c #AB4945",
"R  c #B2605C",
"E  c #807067",
"W  c #87776E",
"Q  c #87786F",
"!  c #817572",
"~  c #857975",
"^  c #8B7C74",
"/  c #827E7C",
"(  c #8A7D79",
")  c #83807F",
"_  c #8F827E",
"`  c #91847C",
"'  c #7F7F80",
"]  c #019FBE",
"[  c #01ADDA",
"{  c #858484",
"}  c #898583",
"|  c #8F8987",
" . c #8D8C8B",
".. c #918583",
"X. c #918884",
"o. c #948D8B",
"O. c #9A8F8C",
"+. c #94908E",
"@. c #9C928D",
"#. c #969594",
"$. c #9B9491",
"%. c #9C9B9B",
"&. c #A1958E",
"*. c #A19792",
"=. c #A49B95",
"-. c #A29D9B",
";. c #A99F9D",
":. c #AAA29E",
">. c #A4A3A3",
",. c #ACA6A3",
"<. c #ADA8A6",
"1. c #ACABAA",
"2. c #B0A7A5",
"3. c #B1A9A5",
"4. c #B4AEAA",
"5. c #AFB0AF",
"6. c #B4B0AE",
"7. c #B9B2AE",
"8. c #B4B4B3",
"9. c #BBB5B2",
"0. c #BFB8B5",
"q. c #BEBDBB",
"w. c #CB938F",
"e. c #C8A39E",
"r. c #C2BAB6",
"t. c #C3BDBA",
"y. c #C6C0BD",
"u. c #C9C2BE",
"i. c #D4C1BE",
"p. c #C6C4C3",
"a. c #CBC6C4",
"s. c #CCC8C6",
"d. c #CBCAC9",
"f. c #D2CBC7",
"g. c #D2CDCA",
"h. c #D4CFCB",
"j. c #D3CCC8",
"k. c #DACAC6",
"l. c #D5D0CD",
"z. c #D5D0CE",
"x. c #D8D2CE",
"c. c #D4D4D3",
"v. c #DBD6D3",
"b. c #DDD8D6",
"n. c #DCDCDB",
"m. c #E2DDDB",
"M. c #E4E0DE",
"N. c #E3E1E0",
"B. c #E5E2E1",
"V. c #E6E4E2",
"C. c #E8E6E4",
"Z. c #EAE9E7",
"A. c #ECECEB",
"S. c #EEEDED",
"D. c #ECEBEA",
"F. c #F0EFEF",
"G. c #F0F0EF",
"H. c #F2F1F1",
"J. c #F2F2F1",
"K. c #F4F5F4",
"L. c #F5F5F4",
"P. c #F5F4F4",
"I. c #F4F4F3",
"U. c #F7F8F7",
/* pixels */
"                                                                                                                                ",
"                                  + . %                               % . .                                                     ",
"                                  + Z Z                               M L .                                                     ",
"                                  9 >. .9                           2 ) 8.w                                                     ",
"                                . ,.C.S.J +                       O t H.N.f.*                                                   ",
"                                . p.=.^ y.L O                   O P c.=.^ g.-                                                   ",
"                                . d.@.B *.t.1.6               + { d.4.E W g.-                                                   ",
"                                . d.&.n ` l.A.< +             O 8.L.=.n Q g.-                                                   ",
"                                . s.@.n ` l.A.2 =             . 1.J.=.n Q g.*                                                   ",
"                                . d.@.n ` l.A.< . . . . . . . . 5.J.=.n Q l.-                                                   ",
"                                . d.&.n ` -.z 9 6 6 9 6 6 6 6 9 w <.*.n W g.-           + % + -                                 ",
"                                . d.*.b l z % w s s s s s s s s % z m j W l.&         6 w p p p                                 ",
"                                . d.@.r . < s s s s s s s s s s s & . 8 W l.%       = 9 K.L.L.p.+ +                             ",
"                                . q.z - p p s s g s O 6 s q . k s p p 2 9 l.%     . q.L.L.L.L.L.L.L.q %                         ",
"                                . q w 9 p 5 . p.J + >.c + 5 s.8.g p s q w z O     . q.L.L.K.K.L.L.L.q +   %                     ",
"                                . 5 e p 9 p L A.{ . d.>.@ 2 P.N.+.g q s s w O     . q.L.L.q.3.S.L.L.>.>.h.+ +                   ",
"                                . q w 6 q ' J.K.) . d.n.- 4 L.L.N.L q q s p o     & A L t.o.( O.C.J.P.N.f.% O                   ",
"                                . 9 w 6 L C.Z.J. .& c.a.4 w P.S.A.Z.J 9 w p o       % @ ^ ( ( ( ( n.P.B.f.@ -                   ",
"                                . 9 % J g.J . d.M.f.G.m.f.c.L.% . #.N.A X s o       @ % ( ( ( ( ( ( b.B.f.% 2                   ",
"                                . . P =.e a [ , S C.L.L.C.0.O i [ u D 0.O.. .           X A ( ( ( ( >.t.f.% -                   ",
"                                . . o.p.>.C 1 o C D.H.L.K.8.. $ , C <.s.,.. .             3 l ( ( ( ( ;.f.# -                   ",
"                                . . %.A.N.4.+.% Z H.L.L.L.8.. P { <.m.M.y.X.% %           O t ( ( ( *.7.j.# &                   ",
"                            O . . . >.J.H.Z.Z.< Z P.K.P.P.8.o b.C.C.G.G.m.g.& . +         O t ( ( ( r.f.j.# *                   ",
"                            O ;  . .y.C.K.K.K.5.#.P P ' ' ' >.S.L.L.L.L.C.b.1.s O         X t ( ( ( O.7.j.# &                   ",
"                            + 6 f.f.V.H.L.L.H.L. .. . . . 6 P.P.L.L.P.K.P.P.J.v +         + t ( ( ( ` 3.g.+ &                   ",
"                            + 6 f.f.C.H.L.H.L.L.+.. . . . 6 P.P.L.L.P.L.P.P.v.m +         O t ( ( ( s.v.f.% %                   ",
"                            + O 3 7.C.L.L.L.L.L.c.>.+ c -.5.P.P.L.M.m.L.C.v.s & +       o f F ( ( ( ,.f.g.# @                   ",
"                            + . . 7.m.F.J.H.L.H.A.n.: ( m.n.P.L.S.b.x.Z.m.g.& . +       . A ( ( ( ( ;.f.f.% %                   ",
"                            & O . 7.f.f.m.Z.L.P.%.9 U I I f L.C.h.f.f.g.g.f.& . +     @ < F ( ( ( ( x.m.g.@ +                   ",
"                                X +.,.r.f.b.Z.Z.H.U.T U w.Z.Z.j.j.f.g.r.,.2.% . +   + & ( ( ( ( ( ( x.g.,.% +                   ",
"                                  O . A j.j.j.f.b.B.T R k.g.f.j.j.j.j.A . . . #.v.. . & ( ( ( ( ( ( t.} .                       ",
"                                  O * s Z m M f.g.g.e.a.v.j.j.f.K A S 0 O 2 . { p.f 6 3 t H ( ( ( ( r.} .                       ",
"                                  O 6 ; . . . f.f.j.j.j.f.f.j.f.; . . . % w o G 3.K h 6 o m ( ^ ( ! 2.K .                       ",
"                                  O 5 #.a.u.u.f.h.j.j.j.f.h.j.f.u.t.t.4.F s w - # ~ ( ( ( ; 0 ^ ( * . @                         ",
"                                O o 5 } h.Z.Z.v.f.f.f.k.h.f.f.h.D.F.D.u.A p s - @ ( ( ( ( m d 6 A & %                           ",
"                                . . 6 G t.L.L.N.v.f.f.h.f.f.h.m.H.L.h...z s p - @ ( ( ( ( ( f +                                 ",
"                                . c g / c.H.L.P.F.m.x.f.v.m.M.L.P.P.0.M Z } g * @ ( ( ( ( ( F f c                               ",
"                                . :.m %.L.H.L.L.H.L.C.h.m.L.L.L.P.d.O.! ,.u.k * & r.o.( ( ( ^ H .                               ",
"                                . p.#.+.d.P.P.L.P.L.L.F.H.L.L.L.F.;.~ @.v.B.X.7 - m.*.( ( ( ( ~ x -                             ",
"                                . c.g.;.,.m.P.P.P.L.L.H.L.P.L.C.m.=.$.d.S.P.h.h ; m.*.( ( ( ( ( ( %                             ",
"                                . c.F.t.*.9.m.Z.L.L.L.P.P.J.C.h.g.9.a.H.L.L.H.v - m.r.*.( ( ( ( ( f 2                           ",
"                                . c.H.m.*.*.f.h.F.H.P.P.J.C.f.j.f.N.H.P.L.H.L.v ; m.D.v.` ( ( ( ( ( ; -                         ",
"                                . c.L.C.f.y.r.f.f.m.H.L.m.g.f.j.9.b.L.L.L.L.m.C 4 y.D.G.v.O.( ( ( ( ; -                         ",
"                                . c.H.L.v.~ . a.f.h.S.V.v.h.j.f.- { H.P.H.F.+ ~ 4.. d.L.F.*.( ( ( ( ; -                         ",
"                                . c.P.P.v.L . c #.j.v.h.f.j.f.m @ { J.K.J.m.% w c . s.K.K.8.O.( ( ( ; *                         ",
"                                . c.P.J.v./ . + G f.f.g.f.a.g.@ .  .P.P.M.g.% O + . d.L.H.L.t.} ( ( ; &                         ",
"                                . c.P.Z.h./ .     . <.j.A - f.j.- { K.P.m.h.%     . d.L.L.L.P.m.( ( ; &                         ",
"                                . c.P.J.v.} .     . 0 d 2 O s s O  .K.K.m.j.%       g Z L.L.L.F.d.` ; %                         ",
"                                . c.H.L.b.} .     . 6 q 0 0 0 0 + { I.L.M.f.%       + < m.L.L.L.m...; &                         ",
"                                . 4.F.J.v.} .     . +.f.j.j.g.f.- P V.L.m.h.%       + - r.N.L.K.m...- &                         ",
"                                . 4.D.F.f.} .       O / g.j.j.j.; L v.L.M.k.%           . o.N.K.H.*.! h +                       ",
"                                . 4.C.Z.j.} .         0 X.j.k.j.- K v.L.m.g.%             w +.v.H.g.O.x .                       ",
"                                . 4.C.Z.h.} .           A $.j.f.- K v.L.m.f.%             & A -.H.H.-.b o                       ",
"                                . 4.Z.M.j.} .           @ 3 j.f.- L v.A.x.f.%               < - F.P.-.b .                       ",
"                                . 4.h.h.f.} .           + 2 h.j.- K v.M.f.f.%               - - F.P.g.) .                       ",
"                                . 7.f.j.j.} .           + 3 g.f.- K x.x.j.f.%               - = F.v.j.} .                       ",
"                                . 6.k.g.g.} .           + 2 f.f.- L f.g.f.f.%               % & j.g.h.} .                       ",
"                                . <.y.u.u./ .           + 2 7.9.* F 9.9.9.9.+               + & r.t.t.L .                       ",
"                                . . . . . . .           + . . . . . . . . . .               + . . . . . .                       ",
"                                                                                                                                ",
"                                                                                                                                ",
"                                                                                                                                ",
"                                                                                                                                ",
"                                                                                                                                "
};
