/* XPM */
static char *b4ed776853cb4007b92dfd3ffefc9b9dUj51yP2ZQhAMButk[] = {
/* columns rows colors chars-per-pixel */
"64 64 220 2 ",
"   c None",
".  c #020202",
"X  c #090706",
"o  c #030C06",
"O  c #0B0906",
"+  c #070708",
"@  c #0B0B0B",
"#  c #110E0D",
"$  c #0C150A",
"%  c #0A1909",
"&  c #14120B",
"*  c #1A160C",
"=  c #121C0C",
"-  c #1E1C0E",
";  c #141314",
":  c #1A1715",
">  c #1E1A14",
",  c #1B1A1A",
"<  c #181718",
"1  c #0D1813",
"2  c #221C0E",
"3  c #241E11",
"4  c #221E19",
"5  c #072713",
"6  c #1A2C19",
"7  c #043316",
"8  c #0D3D16",
"9  c #043518",
"0  c #053A1A",
"q  c #09361B",
"w  c #143817",
"e  c #122B0E",
"r  c #252214",
"t  c #2B2413",
"y  c #2C251C",
"u  c #2B291A",
"i  c #24251A",
"p  c #332B15",
"a  c #342C1A",
"s  c #382F19",
"d  c #3B3217",
"f  c #35301B",
"g  c #3C321B",
"h  c #201F21",
"j  c #2C2622",
"k  c #282724",
"l  c #342B23",
"z  c #342C2A",
"x  c #3D3422",
"c  c #3D362B",
"v  c #3F3930",
"b  c #41351B",
"n  c #453A1D",
"m  c #493D1F",
"M  c #403616",
"N  c #413620",
"B  c #453B21",
"V  c #4B3E22",
"C  c #443A2C",
"Z  c #463A2B",
"A  c #443C32",
"S  c #463A33",
"D  c #04431D",
"F  c #0F451F",
"G  c #184218",
"H  c #16531D",
"J  c #254A15",
"K  c #27581C",
"L  c #375C1C",
"P  c #35641B",
"I  c #2D621D",
"U  c #044D26",
"Y  c #085B27",
"T  c #1B5D25",
"R  c #1D5639",
"E  c #285127",
"W  c #08692A",
"Q  c #04712E",
"!  c #17792C",
"~  c #156835",
"^  c #057434",
"/  c #057D33",
"(  c #097A36",
")  c #0B783A",
"_  c #1A7D37",
"`  c #166B31",
"'  c #276929",
"]  c #24792D",
"[  c #357029",
"{  c #4D411E",
"}  c #4E4122",
"|  c #4C422D",
" . c #544523",
".. c #574823",
"X. c #594924",
"o. c #53452D",
"O. c #564A2C",
"+. c #5C4C2C",
"@. c #4E433B",
"#. c #534633",
"$. c #554A34",
"%. c #5C4D33",
"&. c #534A3E",
"*. c #56483A",
"=. c #5E5038",
"-. c #5F512E",
";. c #604F2E",
":. c #614F33",
">. c #635234",
",. c #64533B",
"<. c #68563D",
"1. c #695936",
"2. c #457F23",
"3. c #72623E",
"4. c #5C4B43",
"5. c #544C40",
"6. c #5F534A",
"7. c #645443",
"8. c #695644",
"9. c #6C5B44",
"0. c #69574B",
"q. c #6D5A4C",
"w. c #645748",
"e. c #715C43",
"r. c #715D4E",
"t. c #6E5B51",
"y. c #725E53",
"u. c #745F58",
"i. c #736445",
"p. c #73624D",
"a. c #7C6A48",
"s. c #796E44",
"d. c #6D6457",
"f. c #756156",
"g. c #796454",
"h. c #746955",
"j. c #766259",
"k. c #7A665B",
"l. c #7C6A5D",
"z. c #7C6D56",
"x. c #7F725E",
"c. c #7D6A61",
"v. c #837253",
"b. c #85755A",
"n. c #88795D",
"m. c #877455",
"M. c #826F62",
"N. c #857263",
"B. c #897666",
"V. c #8B7A65",
"C. c #8C7B6A",
"Z. c #87766A",
"A. c #917C6D",
"S. c #01882C",
"D. c #1A832C",
"F. c #098433",
"G. c #148B35",
"H. c #158437",
"J. c #1B9033",
"K. c #31882A",
"L. c #279937",
"P. c #399D38",
"I. c #379233",
"U. c #39A539",
"Y. c #42821C",
"T. c #489834",
"R. c #55AB2B",
"E. c #5CB42C",
"W. c #5EB82E",
"Q. c #49AA37",
"!. c #59B734",
"~. c #52AF38",
"^. c #69BE36",
"/. c #66C13D",
"(. c #95836C",
"). c #9B8A6B",
"_. c #948466",
"`. c #968372",
"'. c #998672",
"]. c #9C8B73",
"[. c #9D8A7A",
"{. c #A18E77",
"}. c #A49275",
"|. c #A5937B",
" X c #A8967C",
".X c #AC9A7D",
"XX c #AA9776",
"oX c #B19E7F",
"OX c #A3906E",
"+X c #AE9B83",
"@X c #A89788",
"#X c #B29F83",
"$X c #B5A284",
"%X c #B8A586",
"&X c #B6A38A",
"*X c #B9A689",
"=X c #BEAB8D",
"-X c #BEAD92",
";X c #BCAA9B",
":X c #B5A495",
">X c #C1AE8F",
",X c #C1AE91",
"<X c #C2AF9B",
"1X c #C4B294",
"2X c #C6B49A",
"3X c #C9B69B",
"4X c #CCB99E",
"5X c #CDBCA3",
"6X c #CCBCA8",
"7X c #C8B7A0",
"8X c #D4C2AE",
"9X c #D2C1A5",
"0X c #D6C5B4",
"qX c #D9C8B5",
"wX c #DCCCB9",
"eX c #D8C6B5",
"rX c #E2D2BF",
"tX c #DFCFC3",
"yX c #E0CFC1",
"uX c #E2D4CA",
/* pixels */
"                                                                                                                                ",
"                                                                                                                                ",
"                                                                                                                                ",
"                                                                                                                                ",
"                                                                                                                                ",
"                                                                                                                                ",
"                                                                                                                                ",
"                                                                                                                                ",
"                                                                                                                                ",
"                                                                  @ @ @ + @ @ @ @ ;                                             ",
"                                                  < < ; ; ; ; ; k *.5.5.c p t j j z @                                           ",
"                                                  . . . . . . . 4 +X=X1X}.v.+.h.f.@..                                           ",
"                                  @ . . . . . . v $X*X*X*X$X$X$X$X$XZ.j.j.(. X*X$X'.4.o . +                                     ",
"                                @ @.&.c l &.&.&.h.-X1X5X3X>X*X].(.`.r.C.@X+X-X$X).+Xu.3 & y @                                   ",
"                              @ . ).>Xf.l.*X-X>X=X=X1XeX6X*XB.c.7.Z.C.>XwX-X-X`.,..Xu.g a #..                                   ",
"                            . z.*X9X;Xf.&X-X=X=X2XyX>X1X-Xx.j.}.9.6X5X-XwX'.f.X.X.X.q.y.y.y.y.. . .                             ",
"                        ; ; 4.{.C.N.c.+X=X-X=X3X2X#Xk.$.,.B.;XeX<X0X1X-X<.=.y.q.X.B ,.B  .g.y.4.. . + + + #                     ",
"                      @ q.f.9.p.x q.9.v.$X=X=X5X1XM.u.8.$.$.Z.2X,X[.V.A._.f.M.{.X.X.X. .a.9.>.<.t - . j C g @                   ",
"                      . )..X3.i t e.e.1.+X=X=X=X#Xk.q.q.@.u d.$XB.w.q.l.*XC.l.2XX.X.X.X.n.;.X.X.X.X.. S e.+..                   ",
"                  , , 7.#X3XuXv.>.}.1X9X1X=X|.t.k.,Xa u | +XqXc.q.o.h.4X}.=X=X>Xc.X.X.3 N r.y.{ g X.. + p X.g 4 h               ",
"                  v w.,X1X,X;X-X-X=X1X1X=X(.l.k.B.$Xx $X5X1X:Xj.].,XOXX.s.>X+X(.M.X.+.7.y.+.M...i ..- & p X.%.2 <               ",
"                . z.-XwX8X&Xj.-.*X7X3X>X=XB.c.|.$X|.|.2X1X*Xl.M. X<X,X=X2XuX2XN. .3 u.u.y.m X...m X.{ 2 p X.0.3 ;               ",
"                . 7.[.;X[.C.f. X*X,.c.=X=X=X=XeXyX3X=X=X=X=X-XN.9.&X#X#X*XA.l.;.:.t.u.u.u.y.y...r X...2 c t.b S l .             ",
"                . @.`.rX5X&Xf.u.j.>.$X+X=X=X=X=X=X>X=X=X-X$Xk.V $.{.#XA.>.v.,X Xu.g.u.u.M.y.f.u.u ..X.- C u.u.i + .             ",
"                . x.1X1XeX0X=X=X9X-X=X=X,X,XwX@XM.=X=X1X$Xy.$.XX Xj.,.+.XX*X=Xh.M.#XM..XV.u.f.f.8.X.X . g ;.u.l p g X #         ",
"            ; , ].2X2X=X].b.3._.*X=X1XwX Xa.i.C.B.B.$X|.V.e._.%X*X#X X X*X.XC.c.B.*X#X8X6X%X<.l t.9.X * m X.;.,.8.9.# @         ",
"        ; @ o , 4X8X2X=Xb.,.Z x >.|.#X_.z.X.X.i.t.j.$XV.d.q..X|._.|.+X-X=X(.7.l. X>X,X@X&X*X+.x y.q.. t X.:...r.j.g.# @         ",
"        + ; p._.3XqX1X>X|.l.+XB.$X-X{.a =.....u l 0..XN.,. .+. .g t.N.eX>X'.O.].>X-X XN.}.M.x :.+.m . p ,.u.y  .+.X.m m &       ",
"        + d.8X8X%X+X'.z.1.v.0Xl.=X=X}.g n X.+.=.d f $.>.+.n ; n _.#X X6X=XoXOX*X>X6XC.z.].l.o.X.X.V g m X.;. .X. . .X.... #     ",
"      ; & h.0X4XB.y.<.X.X.,.j.C.=X8X2XN.,.V.2X5X3X}.7.%.>.,.|.oX2X2X}.h.h.b.).*X=X[.e.=.j.].>.:.O.s t V q.r.X.8.,.X.b f . +     ",
"      . c _.-X$Xr.o.o.X...a.#X=X1X:X#XeX+X&X1X1X=X_.l.9.g.oX-X).n.h.7.} r b 1.*XA.9.:.>.z.>X>.r.@.t s #.y.u.X.:.:.+.a t . @     ",
"      . V.#X_.V.....r.-.n x %.#.| w.l.+X|.=X=Xe.} X.f.j.oX'.u.:.g * t X.r.>.g.N.u.y.0.8.(.A.u.q.Z 3 X.X.+.:.X.X.:.u.X. .. . @   ",
"      . o.M.,.X.X.z.A.x.6.S b X.{ } ,.l.h.].9.x n X.f.7.O.u.+.X.X.X.X.X.f.f.f.f.X.N s X.j.f.f.a V  .X.X.X.X.f.+.X.X.X. .. . @   ",
"      . n >.;.<. X8X5X1X$XXXX.b g d o.u.f.+.C } X.X.f.X...X.....X.X...X.f.f.f.f.O.m ..}.`.f.f.u f  .X.X.X.X.X.r t X.y.y.. . @   ",
"      . p ;.<.u.#X:XC.e.*.>.X.: @ . ; j j ..f.q.<.X.u.+...V V X.X...X.X.,.>.+.9.8.s X.{.V.f.Z g a  .X.X.g g ..m m X.<.,.. . @   ",
"      . t  .;.<.u.z y n t g X.,.n l 3 * &  .X.X.X.X.j.+.X.a i  ...X.X.X.X.X.-.q.8.b X.y.j.u.N V V 9.X.:.Z d X...:.9.X. .. . @   ",
"      . t  .X.<.l.V B X.r t ..B  .u.<.X.m 2 2 r g ..q.X.X...:.X.b 3 t } >.%.*.8.r...X.y.u.g.7.8.7.u.X.;.b t r r N g.3 2 D 7 +   ",
"    k o 2 b b V o. .V B = = s s N g n n s o o . * b d g g B 4.+.g # 3 n 8.$.b m q.X.X.X.r.f.f.q.r.;.X.r.Z & . o i *.= $ W 0 <   ",
"  6 % S.. . . . . g d . ] ' X  .X.@ . . . ^ / 7 . . . . . . . q.f.g.1.....X.X.r.g.9.....X.r.f.d  .X.X.X.3 . . W Y . E.E.. @     ",
"  , . o . . K.! W = e D.~.P.^ e O Y.! T.` H.G./ Q Q I.. . ' ^ @ + + & s s #.S X X X X X s X.X. .X.;.# X H ! ! T.[ . $ $ +       ",
"    < ; < ; K 8 7 o o 8 J G 9 o X ] G.!._ q 8 7 0 ^ Q.q 5 q 9 q F L w # # > 6 0 0 0 0 0 6 2 2 2 2 2 J = 5 8 8 G J @ @ #         ",
"            @ . . . . . . . . . . Y G.!._ + . . 1 R ' ~ U + . ~ L.^.T . . . 9 ( / ( ( ) 9 . . . . . Y.w . . . .                 ",
"                                  @ . + . R.E.E.R.L.% W ^ ) ( / Q.L.H.7 . ! G.F.T.E + I.S.Q F.L.L.G..                           ",
"                                    @ @ @ P L P I T $ 9 U 0 U 0 T _ P.Y 9 I.U.U.Q.T 5 H D D D ' U.L.#                           ",
"                                          X . . . . . . . . . . . Y !.J.G.Q.^./.~.) S.o . . . @                                 ",
"                                                                    + + . . o o + . +                                           ",
"                                                                    , , , , , h                                                 ",
"                                                                                                                                ",
"                                                                                                                                ",
"                                                                                                                                ",
"                                                                                                                                ",
"                                                                                                                                ",
"                                                                                                                                ",
"                                                                                                                                ",
"                                                                                                                                ",
"                                                                                                                                ",
"                                                                                                                                ",
"                                                                                                                                ",
"                                                                                                                                ",
"                                                                                                                                ",
"                                                                                                                                ",
"                                                                                                                                ",
"                                                                                                                                ",
"                                                                                                                                "
};
