/* XPM */
static char *_9f0c8376cda46949ba86921fb3cf467kGnGd7HPT1MDazH0[] = {
/* columns rows colors chars-per-pixel */
"64 64 201 2 ",
"   c None",
".  c #030302",
"X  c #080606",
"o  c #030B05",
"O  c #080807",
"+  c #0C0B0B",
"@  c #140D04",
"#  c #100E0E",
"$  c #031206",
"%  c #041409",
"&  c #0C130B",
"*  c #031C0A",
"=  c #091A0C",
"-  c #191106",
";  c #12110F",
":  c #17180C",
">  c #0E1B11",
",  c #141313",
"<  c #181717",
"1  c #161916",
"2  c #191917",
"3  c #1B1C1B",
"4  c #271805",
"5  c #281A06",
"6  c #271908",
"7  c #2A1D0B",
"8  c #301E0C",
"9  c #331F06",
"0  c #281E12",
"q  c #201F1E",
"w  c #04230C",
"e  c #0C240E",
"r  c #032B0E",
"t  c #082A0F",
"y  c #04320E",
"u  c #062710",
"i  c #0B2511",
"p  c #032E11",
"a  c #0C2B14",
"s  c #112314",
"d  c #1C221C",
"f  c #132818",
"g  c #112C16",
"h  c #033412",
"j  c #033C13",
"k  c #0D3B14",
"l  c #083917",
"z  c #123414",
"x  c #372204",
"c  c #3B2105",
"v  c #35230B",
"b  c #39210A",
"n  c #362809",
"m  c #28221A",
"M  c #2F3F16",
"N  c #1A3822",
"B  c #242422",
"V  c #282626",
"C  c #293B2F",
"Z  c #3D3C3F",
"A  c #432506",
"S  c #472D07",
"D  c #4A2806",
"F  c #422A0D",
"G  c #4D2E09",
"H  c #542E01",
"J  c #513007",
"K  c #5A3204",
"L  c #57320B",
"P  c #6C3A01",
"I  c #713F01",
"U  c #044416",
"Y  c #034916",
"T  c #0A4F17",
"R  c #034618",
"E  c #034B19",
"W  c #0A4D18",
"Q  c #0C4218",
"!  c #144518",
"~  c #03541C",
"^  c #0B531B",
"/  c #035B1D",
"(  c #0C5D1D",
")  c #035416",
"_  c #1A541E",
"`  c #14551B",
"'  c #2E4018",
"]  c #03631E",
"[  c #0A621D",
"{  c #046B1E",
"}  c #076C1B",
"|  c #01751F",
" . c #017E1D",
".. c #025E21",
"X. c #0A5923",
"o. c #155A25",
"O. c #205D23",
"+. c #026422",
"@. c #0A6521",
"#. c #026C24",
"$. c #096D24",
"%. c #016F28",
"&. c #126824",
"*. c #176525",
"=. c #027326",
"-. c #0A7423",
";. c #037C25",
":. c #0C7B24",
">. c #027428",
",. c #037C28",
"<. c #1B7E2A",
"1. c #187D27",
"2. c #216B27",
"3. c #21772B",
"4. c #207D29",
"5. c #216032",
"6. c #664002",
"7. c #694302",
"8. c #038326",
"9. c #048D26",
"0. c #048429",
"q. c #09872A",
"w. c #038B29",
"e. c #098E2A",
"r. c #148429",
"t. c #118A2A",
"y. c #19862A",
"u. c #039226",
"i. c #04932B",
"p. c #0C942C",
"a. c #049B2C",
"s. c #0B9C2D",
"d. c #019C23",
"f. c #11942E",
"g. c #169E2F",
"h. c #0C9C31",
"j. c #0B9131",
"k. c #119530",
"l. c #169C32",
"z. c #238F30",
"x. c #229732",
"c. c #229932",
"v. c #04A32E",
"b. c #0AA42E",
"n. c #04AB2F",
"m. c #0AAC2F",
"M. c #13A02F",
"N. c #11A82F",
"B. c #06B32E",
"V. c #05A530",
"C. c #0AA331",
"Z. c #06AD31",
"A. c #0AAD32",
"S. c #14A533",
"D. c #1BA335",
"F. c #13AD33",
"G. c #1BAD35",
"H. c #05B230",
"J. c #0CB333",
"K. c #0BB638",
"L. c #0FB935",
"P. c #12B535",
"I. c #1CB637",
"U. c #14BA36",
"Y. c #1ABB37",
"T. c #12B538",
"R. c #1AB138",
"E. c #14BB38",
"W. c #1BBD39",
"Q. c #23A534",
"!. c #22A936",
"~. c #26B137",
"^. c #2CB53C",
"/. c #21BB3B",
"(. c #2CBF3A",
"). c #19C336",
"_. c #17C038",
"`. c #1CC33B",
"'. c #1DCB3B",
"]. c #22C53C",
"[. c #28C53D",
"{. c #24CA3E",
"}. c #2ACC3F",
"|. c #2BD43F",
" X c #26CC40",
".X c #2CCD41",
"XX c #2BC441",
"oX c #30CA42",
"OX c #3ACE47",
"+X c #26D340",
"@X c #2DD341",
"#X c #33D444",
"$X c #34DA45",
"%X c #3ADC46",
"&X c #36DD49",
"*X c #3ADD49",
"=X c #3EE247",
"-X c #3DE24B",
";X c #36E145",
":X c #41DF4C",
">X c #42E54D",
/* pixels */
"                                                                                                                                ",
"                                                          O ,                                                                   ",
"                                              <         V + ,           3 # , +                                                 ",
"                                              .         O $ g           i $ X &                                                 ",
"                                              . . &     X } B.        . ;.~ ,                                                   ",
"                                              . +.^ 3   X 8.b., , ; 3 ] d.* X +                                                 ",
"                                              ; ~ Y a   . t.N.y $ $ w >.{ + O +                                                 ",
"                                                X r ] . . 9.B.n.y h =.=.%                                                       ",
"                                        .       X h ;.{ o ] n.n.w.=.#.=.] X . . . 3                                             ",
"                                        . + + ; r { J.v.$ ] K.`.P.a.;.i.| w y r   d ,                                           ",
"                                        . % * % #.D.}.J.u.b.`.>X>X}.P.J.b.p.b.s.  , ,                                           ",
"                                        . ..#.=.;.,.0.n.B.Y.@XZ.$X>X>X>X>X).U.>Xz . #                                           ",
"                                    2 = ~ * r =.>.=.=.,.b.:.^ y k 1.W.>X>X>X>XP.t * R X                                         ",
"                            3         > p U ~ 0.>.] U 9.;.#.E . w =.L.]. X*X}.v.w o a                                           ",
"                          d s         1 . #.=.=.b.{ w u.#.#.=.>.v.P.Y.9.w..XJ.9.l o ,                                           ",
"                        + y d.. .   , u #.>.... Y.'.'.Z.= Y 0.0.}.Y. .. . a.a.. { Y ;   + . . .                                 ",
"                        + w ,.+X-X= h =.=.>.>.>.Z.Z.n.. . 4.*XZ.#X{.m.n.n.Z.H.n.Z.i.... . +                                     ",
"                          1 w C.=Xp.w.+.$ #.;.a..X].n.u.l.OX*Xh !. XY.$XA.#X#X) V.a.=.#.>                                       ",
"                            % =.Y.Z.v./ . #.8.v..X].Z.Z.*.O._ $ :.:.[ G.A.W.R.X U @.=.h ,   + + + +                             ",
"                            o R ;.w.F.k.~ +.+.`. X'.`.].t o Y ;.w.$.@.W.`.A.i.. j =.0.Y s V o y . ;                             ",
"                            + + ~ =./.}.].$.$.I.%X%X*X-XQ U A.A.A.A.J.$XW.U.F.j s.`.P.A.~ r r ) &                               ",
"                                # +.v.v.,.=.>.>.V.m.J.W.v.V.+X>X>X`.n.n.8.@X*XU.].%X-XJ.B.v.| .                                 ",
"                                # ..>.,.>.= w >.9.].#XZ.|.].P. X>X{.u.. X a.L.$X-X>X>X>Xt.E $ .   +                             ",
"                            3 + #.* l #.>.h * = l $.s.Z.A.A.`.>XF.[ w . . a.Z.A.].g.W s.8./ j 9.  #     +                       ",
"                        , g X.X.%.X...#.=.b.9.) w Y ;.0.v.{.].k.0./ Q #.>.v.Z.A.{.*.o ;.M.}.oX%Xj.#.g 3                         ",
"                      2 q C j l #.#.E R >.a.P.Y.G.N.e.=.8.g.p.>.~ &.l.W.J.n.Z.A.R.-.( G.I.$X$X].0.E a 3                         ",
"                      2   Z . o ..>.w u =.8.R.>X-X XA.>.>.=.=.>.u 2.*X-XJ.n.Z.Z.s.i.I.>Xn.A.A.i.#.$                             ",
"                    .   + . % >.=.>.#.j . #.8.m.#X`.U.U.%X_ . . / j w A.|.A.$XU.|.{.U.=X}.@XW.#.. .                             ",
"                    . + ~ E $ >.>.=.>.#.] w h e.P.`.{.A.J.=.] / =.{ =.Z.P.A.U.V.k [ J.P._.U.A.,.+.o     +                       ",
"                    . +.#.] j w * +.8.w.i.:.} w r z.*XZ.Y w y w.i.s.m.Y.A.Z.9.r `  .u.y #.Z.;.u ,.E > = E >                     ",
"                    2 X / =.+.U E % E A.;X`.V.-./ q.J.A.8.| :.U.|.].J.{.A.v.$ 8.}.1.$ =.u.H.R.3.@XR.( ~ +.g                     ",
"                      + $ U =.=.=...p r ^ b.`.-XP.Z.A.$XA.J.).-Xc.p.Z.A.{.i.] #X].p.8.Z.n.Z.%XoX} %XS.] .                       ",
"                      = * E 0.>.=.=.E h y F.P.J.{.W.Z.W.A.`.XXx.z r.@XZ.y.U 0.A.m.| ) n.P.W.J.8.w f.{ U +                       ",
"                    o + ) 8.a.,.>.>.8.a.B.{.D.Y C.A.Z.H.`.&X~.u $ <.$XZ.u * >.0.a.j * m.%X%Xa.. =.=.w X                         ",
"                , +     + h 0.n.}.%X'.n.n.w.) . (.].Z.a.,.u * ,.i.w.0.Z.'.V.;.>.#.q.].>X+Xv.=.. =.$X` . . . . . .               ",
"                , + , + X . o ;.'.U.K.L.+Xr r ;.p.q.;.;.= w #.,.w.a.Z.Z.|.P.u.>.S.#X-XE.-.R . | a.U.(.Q.../ p .                 ",
"              , X o j E $ . . r ;.w./ Y W | 9.n.F.C.a.>.~ #.F.XX.X.X&X.XW.J..XoX*X*XW.0.h * ] n.n.] e.h.>.l a                   ",
"              + X * h E h y h r +.;.j h Y U.L.n.E.U.H.i.w.i.).>X>X*X#X>XP.U.#X.X.X/.e.,.j j v.{.w.w ) >.Y > B                   ",
"                    . . / 8.a.>.>.>.+.0.n.A.Z.a.n.E.W.Z.Y.W.'.-X:X/.Z.:XJ.`.Y.V.V.e.,.a.a.8.@X%X;.$ E #.w   , .                 ",
"                    . +.+.#.=.>.w.i.a.v.b.0.8.i.Z.[..XZ.A.#XS.* O ..8.. w._.Y.i.w h ,.{.}.C.&Xy.o E ;.8.h                       ",
"                    . #.w u >.#.a.J.@X{.>.* t ;.,.E w v.a.v.i.=.#.p.].w.V.Z.Z.V.w / U.>XJ.A.-X#X;.m.'.G.o                       ",
"                2 u ] =./ R * =.=.w.p.q.=.R / w.p./ o w #.;.=.,.W.OX&XZ. X@XE.Z.0.i.J.P.Z.J.C.a w.*X{.R.r.i                     ",
"              , + % Y =.>.~ o Y #.~ ..+.~ ;.h.Y.P.e.~ [ 0.w.w.s.+X^.l.Z.#X@XE.H.J.J.m.n.Z.a./ j w.oXW.'..X#.o.2                 ",
"              + O . . =.>.~ . . +.* R E $ n.).>XL.Z.J.+XV.v.Z.Z.P.( w n. XE.A.].J.J.P.].n.8.o i.i.n.n.Z.H.n.} .                 ",
"                    . =.=.=.>.#.=.=.h #.H.L.U.>X{.{.-X#XJ.}.U.Z.Y ) 9.* 9.'.{.A.j r.'.q.r w a.P.].=.r y v.~ o . X               ",
"                    . ~ #.>.=.>.=.=.E ] #.;.8.R.U.R.F.F.a.F.a.] ) ;.9.. 8.P.U.v.w ( F.=.) ] W.E.U.S.-.| n.j ;                   ",
"                    , O ~ >.=.=.=.#.=.~ . X w 8.8.0.8.>.;.a.e.. 8.B.v.;.v.J.J.n.y U 9.a.i.i.$X].m.%X).m.H.z B                   ",
"                + ,   O / >.=.=.=.>.>.>.>.>./ . +.8.w.v.E w h a.n.B.Z.Z.Z.$X%XB.v.n.m.m.L.%XK.W.;XK.{.R.o                       ",
"                    O . / =.=.=.>.>.>...w #.%.+.=.8.p.).a.u.9.`.'.v.p.&X$X`.v.n.n.).'.J..X>X`.A.p.8.9.9.X ~.                    ",
"                    * =.~ h w =.%.>.>.R . #.#.% % U ,.;.v.H.B.H.i.~ ! >X`.A.| . =.F.A.=.e.J.V.,.=.$ U =.=.w 3                   ",
"                2 Q #.h $ * X.#.%.>.>.E . +.>.~ ~ ..=.=.,.,.>.l =.;.#.*.#.0.#.. ] s.s.=.Y ,.,.=.=.$ Y =.>.w + +                 ",
"                , a 5.+ * R ..r #.>.>...h %.>.>.E ..>.=.%.>.#.h #.;.>.#.+.=.#.h #.i.p.=.~ =.=.+.u j r r r N d ,                 ",
"                , ,   < % w w h %.j ..>.%.>.%.+.E ..#.h #.>.>.>.>.>.>.>.>.>.>.>.=.>.,.>.>.>.#.p r #.u . .       ,               ",
"                        2 + $ +.+.* j +.%.+.~ o #.%.+.. +.>.%.+.+.#.=.=.;.] +.+...#.=.+.>.>.] . +.+.N + .                       ",
"                            O . . ) r p %.% . . #.R . . #.>.+.. . j #.] ;.o . . . E ... +.>.... . .     .                       ",
"                                + o . . o . w #.% h +.. ..>.>.%.#.=.~ o o . = #.#.=.>.#.* o o .                                 ",
"                                          + o * . : M n e w * w * * % . c c n ' e * * * o +                                     ",
"                                            3 . . - F F 9 5 O . . @ 8 9 J 7 v F @ . +                                           ",
"                                                  : 5 b K 7.7.P S v L 7.F c A 4 m                                               ",
"                                                    , , c H K I G n L b b 0 1 2                                                 ",
"                                                        ; ; 8 P K D A ; ,                                                       ",
"                                                              . . . ,                                                           ",
"                                                                                                                                ",
"                                                                                                                                "
};
