/* XPM */
static char *_6fa1cc3c4834014d72c48e86831610flKMolecJigP7jj4H[] = {
/* columns rows colors chars-per-pixel */
"64 64 174 2 ",
"   c None",
".  c #131313",
"X  c #1D1D1D",
"o  c #311D1F",
"O  c #351F20",
"+  c #232122",
"@  c #282325",
"#  c #292929",
"$  c #3A2F25",
"%  c #342E2E",
"&  c #3A2324",
"*  c #332F30",
"=  c #3C2F30",
"-  c #373434",
";  c #3A3738",
":  c #3C3A3B",
">  c #3D3636",
",  c #3F3429",
"<  c #4C1717",
"1  c #4B1C1D",
"2  c #5B1C1D",
"3  c #53191A",
"4  c #6E1412",
"5  c #6F1A1A",
"6  c #751515",
"7  c #781616",
"8  c #7E1B1B",
"9  c #7B1816",
"0  c #4E241F",
"q  c #793719",
"w  c #501F20",
"e  c #492829",
"r  c #562728",
"t  c #41362A",
"y  c #523F29",
"u  c #453434",
"i  c #563C3D",
"p  c #713A3A",
"a  c #6D3435",
"s  c #5C4328",
"d  c #5C4327",
"f  c #584937",
"g  c #644929",
"h  c #7F4C2C",
"j  c #6C5432",
"k  c #464646",
"l  c #555354",
"z  c #646162",
"x  c #757575",
"c  c #7D7D7D",
"v  c #851A1A",
"b  c #8A1C1B",
"n  c #911E1F",
"m  c #8B241B",
"M  c #91221F",
"N  c #912F1D",
"B  c #8A371D",
"V  c #94341E",
"C  c #961F21",
"Z  c #8C2223",
"A  c #892828",
"S  c #932222",
"D  c #9C2223",
"F  c #922D2F",
"G  c #912E30",
"H  c #8B393B",
"J  c #813A3B",
"K  c #973921",
"L  c #A42526",
"P  c #A32628",
"I  c #AD2629",
"U  c #A42A2A",
"Y  c #AD2A2B",
"T  c #AA2526",
"R  c #B12A2B",
"E  c #B0272A",
"W  c #AF2F31",
"Q  c #B62F30",
"!  c #AD3131",
"~  c #B23434",
"^  c #B63738",
"/  c #BA3A3B",
"(  c #BD3537",
")  c #C43C3E",
"_  c #C83D3D",
"`  c #924E23",
"'  c #8E5D23",
"]  c #9D5624",
"[  c #966826",
"{  c #9D6F2A",
"}  c #A3742D",
"|  c #AB772C",
" . c #AC782D",
".. c #B4712B",
"X. c #B97F2E",
"o. c #B77F2E",
"O. c #B56C34",
"+. c #AF7C30",
"@. c #BD753B",
"#. c #B16A2B",
"$. c #C2783A",
"%. c #994143",
"&. c #AA4849",
"*. c #CC4848",
"=. c #D24749",
"-. c #D34C4C",
";. c #D5494A",
":. c #DD4F51",
">. c #E35355",
",. c #E25556",
"<. c #E45758",
"1. c #BD832F",
"2. c #BD8330",
"3. c #C08631",
"4. c #C68C35",
"5. c #C78F3B",
"6. c #CD933A",
"7. c #CE983F",
"8. c #CA9037",
"9. c #AF8546",
"0. c #9C8664",
"q. c #9A8F7E",
"w. c #9A907E",
"e. c #BC9C6C",
"r. c #AF9873",
"t. c #AE9772",
"y. c #B09772",
"u. c #B29871",
"i. c #A18B68",
"p. c #BFA06E",
"a. c #BBA27A",
"s. c #CE9840",
"d. c #D99E42",
"f. c #D59F4A",
"g. c #DFA244",
"h. c #D2A65E",
"j. c #DDAB58",
"k. c #E3A74A",
"l. c #E5A949",
"z. c #E9AC4B",
"x. c #E0A445",
"c. c #EDB24E",
"v. c #EDB14E",
"b. c #EDB24E",
"n. c #E5AE54",
"m. c #EAAF51",
"M. c #EAB051",
"N. c #C5A268",
"B. c #CAA363",
"V. c #D0A560",
"C. c #7C9CDC",
"Z. c #7798DB",
"A. c #868686",
"S. c gray54",
"D. c #9F9684",
"F. c #9D9D9D",
"G. c #A09484",
"H. c #B8AB95",
"J. c #B8A381",
"K. c #ADADAD",
"L. c #B7B2A9",
"P. c #B4B4B4",
"I. c #BDBDBD",
"U. c #92ABDE",
"Y. c #89AAE7",
"T. c #9BBBF0",
"R. c #A6BAE1",
"E. c #ADC5EF",
"W. c #C2C2C2",
"Q. c #D2D3D5",
"!. c #DADFE8",
"~. c #D9DDE4",
"^. c #DCE0E8",
"/. c #E6E6E6",
/* pixels */
"                                                                                                                                ",
"                                                                                                                                ",
"                                                                                                                                ",
"                                                                                                                                ",
"                                                                                                                                ",
"                                                                                                                                ",
"                                                                                                                                ",
"                                                                                                                                ",
"                                                                                                                                ",
"                                                                                                                                ",
"                                                                                                                                ",
"                                                                                                                                ",
"                                                                                                                                ",
"                                                                                                                                ",
"                                                                                                                                ",
"                                                                                                                                ",
"                                                                                                                                ",
"                                                                                                                                ",
"                                                                                                                                ",
"                                                                                                                                ",
"                                                                                                                                ",
"                                                                                                                                ",
"                                                                                                                                ",
"                                                  # + + + + @ @ @ @ @ @ @ @ @ @ @ @                                             ",
"                                                u 1 < < < 3 2 2 2 2 2 2 2 r 2 2 2 2 e                                           ",
"                                              i J A n n b v S / W L / / ^ D ~ ( Y L F p                                         ",
"                                            e H / E I I E D D ~ W P / / ^ P ~ / ! M U G r                                       ",
"                                          f H _ R C n n P Y D v n ~ ~ ! D D ! ~ U U U U G r                                     ",
"                                        i H _ T C 9 B B N D I D S / *./ P L / ) Y W ~ Y ~ C r                                   ",
"                                        a =.E n 7 m ..3.B M I I D 6 v m m b b M M n M n b b m =                                 ",
"                                    > a ;.E D 6 m ..3.l.c.O.b I E D Z -.:.Q I ;.>.>.:.*.) >.,.*.e                               ",
"                                  - %.=.E D 6 N ..2.l.M.c.c.O.b I E D 7 v v b b v b b b v v b b 8 &                             ",
"                                + &.) Y D 6 B 1.2.g.c.c.c.c.M.@.v I E I 8 -.<.,._ Y _ <.=.~ ;.( ;.Y &                           ",
"                              # &.) E S 6 V 1.4.l.c.c.c.c.c.c.M.@.v E P 6 4 4 4 4 4 4 4 4 6 4 6 6 4 O                           ",
"                                % Z m 6 K 1.4.z.c.c.c.c.c.c.c.c.v.@.6 6 v b b v v v v v v v v v v 8 O                           ",
"                                  r 5 N #.3.g.c.c.c.c.c.c.c.c.c.v.6.q 5 6 6 6 6 6 6 6 6 6 6 6 6 6 w                             ",
"                                    e ` g.g.c.c.c.p.u.u.j.c.c.c.v.s.' ] ] ] ] ] ] ] ] ] ] ] ] ] e =                             ",
"                                    * j c.c.c.n.p.L.I.I.a.V.c.c.v.7.{ 7.d.g.d.d.d.d.d.d.g.7.g.9.t                               ",
"                                    * j c.c.n.a.L.S.A.A.K.H.V.M.v.7.} k.v.v.N.e.e.e.e.e.B.v.n.g.t                               ",
"                                    * j M.n.a.P.S.: # # x F.H.B.c.s.} k.v.N.K.P.P.P.P.P.H.B.n.f.t                               ",
"                                    * j M.V.F.W.k # # # + c I.r.c.s.} k.M.D.Q.^.^.^.~.^.W.S.n.g.t                               ",
"                                    * j M.V.K.W.k # # X X c I.r.c.s.} k.n.G.Q.E.T.T.Y.R.I.q.M.g.t                               ",
"                                    - j c.h.F.I.k # + + X c I.r.c.s.} k.n.G.Q.E.Y.Z.Z.R.W.D.j.f.t                               ",
"                                    * j z.h.F.W.k + + + + c I.r.c.s.} k.n.G.Q.U.C.C.C.R.W.D.n.g.t                               ",
"                                    % s 6.h.F.I.: + X X . x I.t.c.7.} g.n.D.Q./././././.W.w.n.g.t                               ",
"                                    % s 3.9.F.W.: X + . . x I.t.g. .[ 1.z.n.w.A.S.A.S.A.t.c.z. .$                               ",
"                                    % s 3.9.F.W.: X . . . x I.0.4.| [ 1.6.z.h.h.h.h.h.h.j.l.6. .$                               ",
"                                    % s 3.9.F.I.: X . . . x I.0.1.| [ X.1.8.6.6.6.6.6.6.6.8.1. .$                               ",
"                                    % s 2.9.F.I.; . . . . x I.0.1.| [ o.1.1.2.2.2.2.2.2.2.1.2. .$                               ",
"                                      y g f l z # X X . X k z f g d y g g g g g g g g g g g g g                                 ",
"                                        : ; ; ; ; ; ; ; ; ; ; ; > > : : : : : ; ; : ; : ; ; : :                                 ",
"                                                                                                                                ",
"                                                                                                                                ",
"                                                                                                                                ",
"                                                                                                                                ",
"                                                                                                                                ",
"                                                                                                                                ",
"                                                                                                                                ",
"                                                                                                                                ",
"                                                                                                                                ",
"                                                                                                                                ",
"                                                                                                                                ",
"                                                                                                                                ",
"                                                                                                                                "
};
