/* XPM */
static char *ae6b18d57afc45678ebb6b518ba0a860nm9s7LAlnO2t9iAs[] = {
/* columns rows colors chars-per-pixel */
"64 64 201 2 ",
"   c #502000",
".  c #582704",
"X  c #703B10",
"o  c #784114",
"O  c #7B4315",
"+  c #7E4717",
"@  c #733D12",
"#  c #804818",
"$  c #6E390F",
"%  c #562503",
"&  c #774013",
"*  c #7F4718",
"=  c #68340C",
"-  c #7A4315",
";  c #794215",
":  c #7C4516",
">  c #7E4617",
",  c #7C4416",
"<  c #532302",
"1  c #7B4416",
"2  c #7F4818",
"3  c #7D4516",
"4  c #7D4617",
"5  c #632F0A",
"6  c #602D08",
"7  c #622F09",
"8  c #7F4717",
"9  c #6B370E",
"0  c #572503",
"q  c #6F3A10",
"w  c #532201",
"e  c #5C2A06",
"r  c #592704",
"t  c #552402",
"y  c #522201",
"u  c #512100",
"i  c #7B4415",
"p  c #582604",
"a  c #63300A",
"s  c #67330B",
"d  c #743E12",
"f  c #552403",
"g  c #723C11",
"h  c #764013",
"j  c #66330B",
"k  c #66320B",
"l  c #612E08",
"z  c #5D2B06",
"x  c #6D380E",
"c  c #522101",
"v  c #5A2805",
"b  c #753E12",
"n  c #512000",
"m  c #592805",
"M  c #512101",
"N  c #794214",
"B  c #784214",
"V  c #5B2906",
"C  c #753F12",
"Z  c #713B10",
"A  c #602E08",
"S  c #69350C",
"D  c #542302",
"F  c #6F3A0F",
"G  c #5E2C07",
"H  c #572603",
"J  c #763F13",
"K  c #69350D",
"L  c #4F2000",
"P  c #774114",
"I  c #6D380F",
"U  c #542402",
"Y  c #491D00",
"T  c #471C00",
"R  c #441B00",
"E  c #431B00",
"W  c #4E1F00",
"Q  c #5F2D08",
"!  c #4A1E00",
"~  c #471D00",
"^  c #441C00",
"/  c #461C00",
"(  c #713C11",
")  c #5B2905",
"_  c #4C1E00",
"`  c #451C00",
"'  c #572604",
"]  c #5A2905",
"[  c #6C380E",
"{  c #6C370E",
"}  c #633009",
"|  c #6B360D",
" . c #733D11",
".. c #481D00",
"X. c #4B1F01",
"o. c #794315",
"O. c #713B11",
"+. c #65320B",
"@. c #5E2B07",
"#. c #753F13",
"$. c #723D11",
"%. c #6A360D",
"&. c #5D2B07",
"*. c #6A350D",
"=. c #5F2C07",
"-. c #703A10",
";. c #4F1F00",
":. c #4C1F00",
">. c #4B1E00",
",. c #4D1F00",
"<. c #5B2A06",
"1. c #67330C",
"2. c #7D4616",
"3. c #65310A",
"4. c #4A2002",
"5. c #582A08",
"6. c #471E02",
"7. c #4A2003",
"8. c #461D01",
"9. c #461E01",
"0. c #4A1F02",
"q. c #451C01",
"w. c #6C380F",
"e. c #4F2203",
"r. c #60300B",
"t. c #713D12",
"y. c #532202",
"u. c #743F13",
"i. c #4F2304",
"p. c #602E09",
"a. c #7A4215",
"s. c #4C2103",
"d. c #68360E",
"f. c #7B4516",
"g. c #64300A",
"h. c #532404",
"j. c #4A1F01",
"k. c #6D370E",
"l. c #4D2203",
"z. c #61310B",
"x. c #512303",
"c. c #61310C",
"v. c #451D01",
"b. c #572907",
"n. c #4D2102",
"m. c #4E2001",
"M. c #7A4316",
"N. c #723D12",
"B. c #4F2405",
"V. c #542605",
"C. c #522403",
"Z. c #562806",
"A. c #6C3910",
"S. c #754013",
"D. c #5D2C07",
"F. c #6B380F",
"G. c #512201",
"H. c #592705",
"J. c #703C10",
"K. c #491F01",
"L. c #66340D",
"P. c #703C11",
"I. c #64320A",
"U. c #65320C",
"Y. c #7C4517",
"T. c #5D2E0A",
"R. c #502102",
"E. c #562706",
"W. c #4C1F01",
"Q. c #4E2203",
"!. c #4E2102",
"~. c #4C2102",
"^. c #733E11",
"/. c #592B09",
"(. c #65340D",
"). c #4D2103",
"_. c #522302",
"`. c #592906",
"'. c #602F0A",
"]. c #733C11",
"[. c #491E01",
"{. c #65330D",
"}. c #532605",
"|. c #542706",
" X c #552504",
".X c #4B1F00",
"XX c #481E01",
"oX c #5C2C08",
"OX c #5F2F0B",
"+X c #5B2D09",
"@X c #764014",
"#X c #552705",
"$X c #5F2E09",
"%X c #612F0A",
"&X c #65330B",
"*X c #64310A",
"=X c #63320C",
"-X c #64330D",
";X c #5A2B07",
":X c #7E4616",
">X c #774014",
/* pixels */
"      . X o O + @ # # # $                                             % & * =                                     - ; : > ,     ",
"      < 1 * 2 3 4 : 5 6 %                                             7 8 # 9                                 0 : # 4 , > q     ",
"        w e r t w y                                                 u % i # t p a s X d 6                     f g h j k l       ",
"          z x 7         c v 0                                     u b # # + 8 > * > + 4 + <                                 n   ",
"        j 2 # * m   M N 8 # B                                     V @ & 8 3 3 , C 3 3 > Z                   y A M           S x ",
"        u m r % n   0 + # 8 $       D 7 y                         < X F X q = = G r H t n                   = * q           J > ",
"  c       < M       . 2 # > g   D o : + b o D u a K M               n               L                       Z > P           S I ",
"F * 4 * * > > 3 U   U + # * q   z o $ * * # 1 1 4 8 o                   Y T R R E E E W                     7 * X               ",
"N # 8 # # # # > V     8 2 * Q   s : , # > 8 + # 3 * # r       ! T ~ ^ E R R E E ^ / !         y P h           t                 ",
"< y $ d 3 1 : > (     ) . y     p > + # * # # # # # > k     _ E E E ` E E R R Y                 : 2         y '                 ",
"    ] t [ { h } u                 m | * : > # : 4 :  .w   _ ~ .._ ! X.~ r w % b o.o O.          $ > o o 1 : + + +.              ",
"                      v g }           D t y               W L     M M n y 7 o > 8 * ; f         @.* # 2 # # # # + H             ",
"                      8 # >       V O.#.4 7                     V # * + 4 & 8  .#.# # -         c 1 + * > * o  .> %       n d $.",
"                      > 2 @       X 3 8 # c                     ) O - : 2 > 4 #.= %.g v           y c   M       n         g # 2 ",
"7 1 2 + + {           Q &.        6 q +.X                           u P 4 # * # 4 t                                       h 8 > ",
": - 8 - ( z                                       $ # * 9 K U         u   u c c Q                                         } > i ",
"- 1 -                       < y                   > # # 8 *.y                             D                     < $ g b D   M   ",
"e l r         =.s         n o 1 )               c * : * > H                             > 4 M                   #.> # # i $.u   ",
"            n * # y         + # > c               J : > -.          u 7 g N 6         w 4 > u             < D 1 # 2 2 + * > =   ",
"            M # * D   =.@.k : # : %                                 %.: > # o M         Q e             6 # > # # # # # 8 - $   ",
"              # # % e # 2 # # # * e                       L L ;.W W   c M M y                     y h X I C > # 8 > * h - > {   ",
"              3 * M $ # i # # # : w           7 C =.    L ^ ^ R R R Y                     :...L   6 + i $.0 x o J & g *.C $ '   ",
"    0         ) 6   e O o 8 1 X %             ; 8 e     >.E E E E E E /           u     ~ E T ~                 L W ,.          ",
"  x 8 m                                       u M       ` E E E R R / >.  m 1 4 3 > P q ,.! _ R ` ..>.T ` ` T R R E R R         ",
"  g * Q       ..T ` Y W L W W         D   y ) D D c D 0 ..E R E L       u # # # 3 + * 8 <.! R E E E E E E ` ` E E R R ~         ",
"  u c       L E E E E E R E E       f * * # # 2 * + 8 1   ^ R ..    t | & > 1 1 > 2 8 1 o   T ` / E ~ >.E R ` ~ >.  < 1.$.@ u   ",
"            >.` T R E E R E E ,.    } # 8 # # # # # 2 N             l + # + : 2.8 2 # o.9     Y Y Y   . a c          .1 * * 3.  ",
"                r     Y R E E L     j # + > ; + & d > ;             < > 3 g $ a e m e u             v 8 2 C         > & 3 $ K   ",
"            H 4 2 m     L L L       ] 7                               u                             m q h >         3 X P : o.  ",
"            s # # f                                                 L ..4.5.6.7.8.9.^ L                 , 2 M       F + : g )   ",
"            3.# * t   y f <.y   y u D                               :./ 0.7.q.q.E q.R                   I > 3 w.e.! L M L       ",
"            @.# # H y + + 8 > > # # 8 .                                                               L G r.t.9.E E E R R ~ >.L ",
"            M 3 -   w > i * # 2 > -.                    x =                           u t   M 0 y._ ! T R E E E E E E E E E E ` ",
"              D y       U Z : > @ 7                   = 2 8             u             f C 3 # u.i.E E E E E E E E E E E E E E E ",
"                            c                         z X =           D 4 F n           =.| *.p.E E E E E E E E E E E E E E E E ",
"                                        t V <.c                       = 8 a.N '         ,.,.W >.E E E E E E R s.4.E E E E E E E ",
"                                      H + # 8 -             >...>.L   S 2 # * i   _ ..T E E E E E E E ` d.f.+ # 4 E E E E E E E ",
"    M c                         M r '  .* > # 3 S .       _ R E E ` L g.# 2 > # h.E E E E E E E E E E / S # > G 6 j.E E E E E E ",
"  n k.b                         v & 1 > # # # 2 : o   Y R E E E E E Y D > # - 4 l.E E E E E E E E E E >.$ # I ~ E E E E E E E R ",
"  r 4 8 e                         e 8 # # > * > 2.z.R E E E E E E E T   ( 3 B + x.E E E E E E E E E R   G P E E E E E E E E E ` ",
"  H # 8 y                         c 1.d 4 3 4 c.v.E E E E E E E E E ^   @.J 9 b.E E E E E E E E E E R ` ~ E E E E E E E E E E E ",
"  . 3 N c     y { d b             W >.>.,.u ..E E E E E v.v.E E E E E / ` E E E E E E E E E E E E 8.` ` / E E E E E E E E E E E ",
"    % U         $ N > y       L T E E E E / R E E E n.m.M.N.R E E E E E E E E E E E E E E E E E q.# 1./ E E E E E E E E E E E E ",
"              %.+  .8 - X @ u L E E E E E R E E R $ > j # 8 ,.R E E E E E E E E E E E R E E E B.M.2 ( R E ` R E E E E E V.C.E E ",
"            = # - g C K ( > ) >.E E E / / R E E ` 1 1 g 3 4 Z.E E E E E E E E E E R ~ E R i.A.* # > #.k ` / E E E E E R - S.E E ",
"            1 # F d 3 P + P ,.E E E ~ $ < ..E E ` d ; 3 : 2 D.E E E E ^ E E E r.* : 3 N 8 # # * # # 2 N.E E E E E E E E F.N.E E ",
"            o *     L G.&.u R E E E D.+ H.` E E E J.# * K % ,.R E E E / E ^ E K.1 # * # # # > 8.8.^ 8.R E E E E E E E E 8.E E E ",
"            #.# M ! R R T R E E E ! I # . R E E E t.# L.>.! R E E E E E E R ` E M i 4 * i > P.E E ` R E E E E E E E E E E E E E ",
"      L W   I.; ^ E E E E E E E E ~ U.# Q / E E E Y.- T.E E E / E ^ E E R R ` R E R.I + z.E.^ E E ^ ^ / E W.Q.E E E E E E E E E ",
"  L Y E E E R R E E E E E E E E E E E v.R E E E R 1 8 L.E E E / R E E E ` !.k / R ,.~.^ E E E E E E R R R ^.- /.q.E E E E E E E ",
"_ R E E E E E E E E E E R E E E E E E E E E E E ^ : (.).E ` E R ` R R R _.* 8 ` E T R R ` / E E E R R R Z., 2 + u.E E E E E R E ",
"E E E E E E E E E E E E E E E E ~ ` E E E E E E ^ ^ E E E E E E ` ` E ` `.2 9 ~ E / E E R E ^ R R C.q i 8 o * ; 3 '.E E E E E E ",
"R E E E E E E E E E E E E E ^ z.: ].;.W W ~ E E E E E E E E E E E E R ^ / [.R R ^ E E E E E E / {.8 2 > * 8 - 3 - i ` E E E E E ",
":...8.}.|. X>.~ E E R ^ Y F.B P P 3 .     _ E E E E E E R E E E E E E E E E E E E E E E ^ T .XI # # # # # # # * Z o XXE E E E E ",
"c - 2 3 i N S   L ;.= #.8 8 # 4 g ; k     L R E E E E oX%   >.R E E E E E E E E E E E E E E R XX$.4 1 + # * : O OX^ E E E ` >.R ",
"%.> - + > o.&       6 g.: * * # # J K r U   W / ` +X@X2 &       ,.~ T ` E E E E E E E E E E E E E R ` / #X$X%X&XE E E E / ;.    ",
"h o.* # 8 * l           4 * + # 3 B o * o       L c > # %             ;.` E E E E E E E E E E E E E E E E E E E E E R _         ",
"@ * 8 2 - > ]           +.> 8 # # # 1 o.K         @.3 - c     7 X *X{ B #.t.=X-XOX;XX.>.W W Y ` E E E E E E E E E E >.x         ",
"M t < & > h M           G o 8 8 # 8 # # r         z o V       B : > # # # : 4 # * 8 2 > h I y   ,.>.../ ` R R E R ..a # f       ",
"        n                     7 8 8 :X<                       o o X # 2 + - + * 8 3 1 + * # d                   y.z $.o         ",
"                                M y                           6 3 4 I   u M % p 7 k j ( ( $.+.                  - > - >X=       ",
"                                                                % M                                             V . + - m       ",
"                                                                                                                                ",
"                                                                                                                                "
};
